<svg
  width="50"
  height="50"
  viewBox="0 0 40 40"
  fill="none"
  xmlns="http://www.w3.org/2000/svg"
>
  <path
    d="M8 18C8 16 10 14 12 14H28C30 14 32 16 32 18V26C32 30 28 34 24 34H16C12 34 8 30 8 26V18Z"
    fill="#FF6B6B"
    stroke="#E55555"
    strokeWidth="1.5"
  />
  
  <ellipse
    cx="20"
    cy="19"
    rx="11"
    ry="3"
    fill="#FFD93D"
    opacity="0.8"
  />
  
  <path
    d="M14 22C16 20 18 22 20 20C22 22 24 20 26 22"
    stroke="#F4D03F"
    strokeWidth="2"
    strokeLinecap="round"
    fill="none"
  />
  <path
    d="M15 25C17 23 19 25 21 23C23 25 25 23 26 25"
    stroke="#F4D03F"
    strokeWidth="1.5"
    strokeLinecap="round"
    fill="none"
  />
  
  <circle cx="16" cy="24" r="2" fill="#8B4513" />
  <circle cx="24" cy="26" r="1.5" fill="#8B4513" />
  
  <rect x="18" y="20" width="1" height="3" fill="#90EE90" rx="0.5" />
  <rect x="21" y="21" width="1" height="2" fill="#90EE90" rx="0.5" />
  <rect x="23" y="19" width="1" height="3" fill="#90EE90" rx="0.5" />
  
  <path
    d="M15 12C15 10 16 8 17 10C18 8 19 10 19 8"
    stroke="#E0E0E0"
    strokeWidth="1.5"
    strokeLinecap="round"
    fill="none"
    opacity="0.6"
  />
  <path
    d="M21 11C21 9 22 7 23 9C24 7 25 9 25 7"
    stroke="#E0E0E0"
    strokeWidth="1.5"
    strokeLinecap="round"
    fill="none"
    opacity="0.6"
  />
  
  <path
    d="M30 10L26 22"
    stroke="#D2691E"
    strokeWidth="1.5"
    strokeLinecap="round"
  />
  <path
    d="M32 9L28 21"
    stroke="#D2691E"
    strokeWidth="1.5"
    strokeLinecap="round"
  />
</svg>